<svg width="24" height="24" viewBox="0 0 24 24" fill="none" xmlns="http://www.w3.org/2000/svg">
<path d="M19.8665 3H4.13346C2.95518 3 2 3.95518 2 5.13346C2 5.68299 2.21204 6.21132 2.59195 6.60838L8.20426 12.4741C8.36416 12.6412 8.44411 12.7248 8.51678 12.8098C9.08638 13.4759 9.42142 14.3107 9.47039 15.1858C9.47664 15.2975 9.47664 15.4131 9.47664 15.6444V18.5028C9.47664 20.2241 11.162 21.4401 12.7955 20.8975C13.8271 20.5548 14.5234 19.5899 14.5234 18.5028V16.1342C14.5234 15.4206 14.5234 15.0638 14.5826 14.7234C14.6787 14.1714 14.8896 13.6458 15.2018 13.1805C15.3943 12.8936 15.641 12.6358 16.1343 12.1202L21.4081 6.60838C21.788 6.21132 22 5.68299 22 5.13346C22 3.95518 21.0448 3 19.8665 3Z" stroke="currentColor" stroke-width="1.6" stroke-linecap="round" data-darkreader-inline-stroke="" style="--darkreader-inline-stroke: var(--darkreader-text-222222, #d3cfc9);" class="my-path"/>
</svg>
